# 
# 
mtllib Book.mtl
o book
v 0.449810 0.036689 -0.679800
v 0.449898 0.038702 0.679869
v 0.477560 0.034252 0.712201
v 0.449885 0.224829 0.679339
v 0.449555 0.222956 -0.680134
v 0.477125 0.227301 -0.712501
v 0.419996 0.258979 -0.668118
v 0.477346 0.260199 0.711837
v 0.477237 0.258162 -0.712532
v 0.477448 -0.000039 -0.712190
v 0.477557 0.001998 0.712179
v -0.428568 0.036200 -0.679693
v 0.477473 0.032285 -0.712189
v -0.424402 0.031682 -0.711927
v -0.415312 -0.000496 -0.711865
v -0.462696 -0.000599 -0.712123
v -0.420381 -0.001185 -0.667750
v -0.464815 -0.001070 -0.667622
v -0.420022 0.000634 0.667940
v -0.464456 0.000748 0.668067
v -0.415097 0.001425 0.712242
v -0.462452 0.001413 0.712312
v -0.476702 0.033652 0.712270
v -0.428238 0.038072 0.679779
v -0.424428 0.033744 0.712376
v -0.428446 0.222301 -0.680158
v -0.424704 0.226837 -0.712282
v -0.428622 0.224385 0.679728
v 0.477393 0.229382 0.711912
v -0.424459 0.228849 0.712152
v -0.415707 0.259723 0.712051
v -0.462956 0.259594 0.711859
v -0.420589 0.260348 0.667498
v -0.464935 0.260298 0.667734
v -0.420678 0.258479 -0.668059
v -0.465029 0.258408 -0.668173
v -0.415817 0.257685 -0.712317
v -0.463066 0.257557 -0.712510
v -0.477001 0.226676 -0.712367
v -0.476947 0.031641 -0.712165
v -0.477004 0.228808 0.711915
v 0.443726 0.085186 0.679664
v 0.443526 0.083268 -0.680091
v 0.449974 0.131798 0.679801
v 0.449750 0.129810 -0.679934
v 0.443643 0.178238 0.679551
v 0.443602 0.176364 -0.680160
v -0.440129 0.084671 0.679703
v -0.439383 0.131186 0.679791
v -0.440212 0.177722 0.679590
v -0.440082 0.082632 -0.679900
v -0.439606 0.129198 -0.679943
v -0.440277 0.175779 -0.680100
v -0.436599 0.177972 -0.712286
v -0.484806 0.177993 -0.712221
v -0.485608 0.175003 -0.668212
v -0.478477 0.220815 -0.668078
v -0.485355 0.176937 0.667739
v -0.478141 0.222564 0.667633
v -0.484832 0.180055 0.712082
v -0.436225 0.179938 0.711865
v -0.436195 0.082431 0.712141
v -0.484696 0.082432 0.712096
v -0.485335 0.085418 0.667863
v -0.478078 0.039595 0.667859
v -0.485535 0.083643 -0.667782
v -0.478413 0.037846 -0.667851
v -0.484805 0.080395 -0.712273
v -0.436546 0.080534 -0.712032
v 0.420084 0.260848 0.667440
v 0.420157 -0.000659 -0.667874
v 0.420381 0.001185 0.667750
v -0.436131 0.131206 0.712025
v -0.488964 0.131167 0.712026
v -0.489001 0.131220 0.667905
v -0.488983 0.129236 -0.667915
v -0.489291 0.129340 -0.712168
v -0.436346 0.129285 -0.712082
vt 0.021204 0.373422
vt 0.019632 0.928378
vt 0.044607 0.929425
vt 0.979544 0.923533
vt 0.980032 0.372053
vt 0.953697 0.372683
vt 0.906143 0.399182
vt 0.927092 0.925297
vt 0.928393 0.373886
vt 0.070560 0.373136
vt 0.072882 0.930036
vt 0.400216 0.323289
vt 0.070859 0.322197
vt 0.070452 0.347450
vt 0.400361 0.347976
vt 0.400572 0.371784
vt 0.425045 0.371313
vt 0.400878 0.398565
vt 0.425141 0.399597
vt 0.399206 0.902582
vt 0.425311 0.902253
vt 0.399930 0.928196
vt 0.425073 0.928180
vt 0.425543 0.953810
vt 0.071559 0.978467
vt 0.400449 0.979208
vt 0.399561 0.954321
vt 0.071717 0.954680
vt 0.046836 0.373008
vt 0.929495 0.321056
vt 0.601608 0.322268
vt 0.600776 0.347807
vt 0.929059 0.347300
vt 0.599744 0.977203
vt 0.926988 0.977060
vt 0.926834 0.952162
vt 0.599046 0.951399
vt 0.600554 0.925181
vt 0.579741 0.925276
vt 0.600830 0.903544
vt 0.579688 0.902787
vt 0.601070 0.398708
vt 0.578390 0.398882
vt 0.600932 0.372633
vt 0.577541 0.372930
vt 0.577084 0.347156
vt 0.954090 0.924888
vt 0.425165 0.348345
vt 0.579890 0.953355
vt 0.378303 0.235314
vt 0.642409 0.235312
vt 0.366240 0.198169
vt 0.641175 0.197917
vt 0.360252 0.160584
vt 0.638731 0.160800
vt 0.357436 0.123467
vt 0.638893 0.123215
vt 0.358301 0.086073
vt 0.637979 0.086070
vt 0.084047 0.234219
vt 0.080599 0.197448
vt 0.080868 0.160677
vt 0.080599 0.123920
vt 0.084046 0.087146
vt 0.891159 0.234239
vt 0.904735 0.197465
vt 0.911662 0.160708
vt 0.915422 0.123937
vt 0.912192 0.087166
vt 0.551867 0.323183
vt 0.526141 0.322007
vt 0.526772 0.345687
vt 0.553135 0.346511
vt 0.526549 0.373724
vt 0.552754 0.372624
vt 0.528151 0.399285
vt 0.553364 0.399899
vt 0.527574 0.901586
vt 0.551202 0.902725
vt 0.526053 0.927042
vt 0.551103 0.927621
vt 0.525921 0.952909
vt 0.550570 0.953569
vt 0.525380 0.978839
vt 0.552573 0.977045
vt 0.448676 0.978492
vt 0.474433 0.978040
vt 0.473777 0.953802
vt 0.448495 0.953013
vt 0.475054 0.928954
vt 0.448873 0.929046
vt 0.474508 0.902333
vt 0.448710 0.902337
vt 0.475087 0.397828
vt 0.451964 0.398746
vt 0.475552 0.373434
vt 0.450527 0.372822
vt 0.476255 0.345464
vt 0.451062 0.344784
vt 0.476796 0.321714
vt 0.451175 0.321327
vt 0.905594 0.902949
vt 0.096279 0.397897
vt 0.097734 0.902128
vt 0.499624 0.978149
vt 0.499603 0.953622
vt 0.500553 0.927250
vt 0.501566 0.901976
vt 0.501091 0.397479
vt 0.501047 0.373266
vt 0.500966 0.347386
vt 0.500921 0.321827
vn 0.351695 0.880673 -0.317301
vn 0.352031 0.880856 0.316446
vn 0.590411 0.548479 0.592059
vn 0.354534 -0.879299 0.317942
vn 0.352794 -0.880642 -0.316202
vn 0.589099 -0.550432 -0.591571
vn 0.004273 0.999939 -0.008423
vn 0.578448 0.576189 0.577380
vn 0.579882 0.572863 -0.579241
vn 0.578387 -0.575335 -0.578295
vn 0.579150 -0.574206 0.578661
vn 0.539232 0.592425 -0.598498
vn 0.590197 0.548479 -0.592242
vn 0.264962 0.388653 -0.882443
vn 0.002411 -0.702567 -0.711600
vn -0.420515 -0.665212 -0.616932
vn -0.000336 -0.999969 -0.006439
vn -0.577685 -0.816218 -0.006165
vn -0.000977 -0.999939 0.009644
vn -0.583239 -0.812006 0.020325
vn -0.000275 -0.702353 0.711783
vn -0.437574 -0.660024 0.610614
vn -0.704794 -0.216071 0.675680
vn 0.536454 0.596545 0.596912
vn 0.262703 0.384747 0.884823
vn 0.536546 -0.593768 -0.599567
vn 0.263100 -0.386181 -0.884091
vn 0.539445 -0.595203 0.595538
vn 0.591083 -0.546525 0.593219
vn 0.259926 -0.388256 0.884091
vn -0.002167 0.703116 0.711051
vn -0.420728 0.666951 0.614917
vn -0.001068 0.999969 0.006592
vn -0.575243 0.817927 0.006256
vn -0.001068 0.999939 -0.009705
vn -0.580279 0.814142 -0.020905
vn -0.000244 0.700613 -0.713523
vn -0.435133 0.657979 -0.614551
vn -0.703787 0.217231 -0.676321
vn -0.699210 -0.201453 -0.685903
vn -0.703604 0.204474 0.680502
vn 0.675558 0.000092 0.737266
vn 0.673177 -0.000641 -0.739464
vn 0.734062 0.001648 0.679037
vn 0.735282 -0.001129 -0.677725
vn 0.674429 0.004486 0.738304
vn 0.674886 -0.000214 -0.737907
vn 0.764489 0.087924 0.638569
vn 0.740318 -0.002197 0.672201
vn 0.766198 -0.079318 0.637654
vn 0.762596 0.083102 -0.641499
vn 0.739555 0.001465 -0.673055
vn 0.763268 -0.088473 -0.639973
vn 0.707266 -0.090732 -0.701071
vn -0.707755 0.086215 -0.701163
vn -0.993500 0.113437 -0.005799
vn -0.968261 0.249794 -0.007630
vn -0.993042 0.117679 0.001099
vn -0.970580 0.240699 -0.004639
vn -0.706961 0.088748 0.701621
vn 0.714316 -0.084262 0.694693
vn 0.710410 0.094394 0.697378
vn -0.709098 -0.087039 0.699667
vn -0.992981 -0.117985 0.003967
vn -0.968657 -0.248238 0.006592
vn -0.993255 -0.115909 -0.001526
vn -0.970855 -0.239540 0.001556
vn -0.704093 -0.089511 -0.704398
vn 0.708853 0.087130 -0.699942
vn 0.004028 0.999969 0.005158
vn 0.004578 -0.999969 -0.004456
vn 0.005066 -0.999939 0.007721
vn 0.743675 -0.001953 0.668508
vn -0.725059 -0.001770 0.688650
vn -0.999969 -0.001099 0.001404
vn -0.999969 0.001343 0.001129
vn -0.727683 0.003113 -0.685873
vn 0.744926 0.001373 -0.667104
usemtl book
s 1
f 1/1/1 2/2/2 3/3/3
f 4/4/4 5/5/5 6/6/6
f 7/7/7 8/8/8 9/9/9
f 10/10/10 3/3/3 11/11/11
f 12/12/12 1/13/1 13/14/13
f 12/12/12 13/14/13 14/15/14
f 14/15/14 13/14/13 15/16/15
f 14/15/14 15/16/15 16/17/16
f 16/17/16 15/16/15 17/18/17
f 16/17/16 17/18/17 18/19/18
f 18/19/18 17/18/17 19/20/19
f 18/19/18 19/20/19 20/21/20
f 20/21/20 19/20/19 21/22/21
f 20/21/20 21/22/21 22/23/22
f 22/23/22 21/22/21 23/24/23
f 2/25/2 24/26/24 25/27/25
f 2/25/2 25/27/25 3/28/3
f 3/28/3 25/27/25 11/11/11
f 3/3/3 10/10/10 13/29/13
f 13/29/13 1/1/1 3/3/3
f 5/30/5 26/31/26 27/32/27
f 5/30/5 27/32/27 6/33/6
f 6/33/6 27/32/27 9/9/9
f 28/34/28 4/35/4 29/36/29
f 28/34/28 29/36/29 30/37/30
f 30/37/30 29/36/29 31/38/31
f 30/37/30 31/38/31 32/39/32
f 32/39/32 31/38/31 33/40/33
f 32/39/32 33/40/33 34/41/34
f 34/41/34 33/40/33 35/42/35
f 34/41/34 35/42/35 36/43/36
f 36/43/36 35/42/35 37/44/37
f 36/43/36 37/44/37 38/45/38
f 38/45/38 37/44/37 39/46/39
f 29/47/29 4/4/4 6/6/6
f 29/47/29 6/6/6 8/8/8
f 8/8/8 6/6/6 9/9/9
f 16/17/16 40/48/40 14/15/14
f 32/39/32 41/49/41 30/37/30
f 2/50/2 1/51/1 42/52/42
f 42/52/42 1/51/1 43/53/43
f 42/52/42 43/53/43 44/54/44
f 44/54/44 43/53/43 45/55/45
f 44/54/44 45/55/45 46/56/46
f 46/56/46 45/55/45 47/57/47
f 46/56/46 47/57/47 4/58/4
f 4/58/4 47/57/47 5/59/5
f 24/60/24 2/50/2 48/61/48
f 48/61/48 2/50/2 42/52/42
f 48/61/48 42/52/42 49/62/49
f 49/62/49 42/52/42 44/54/44
f 49/62/49 44/54/44 50/63/50
f 50/63/50 44/54/44 46/56/46
f 50/63/50 46/56/46 28/64/28
f 28/64/28 46/56/46 4/58/4
f 1/51/1 12/65/12 43/53/43
f 43/53/43 12/65/12 51/66/51
f 43/53/43 51/66/51 45/55/45
f 45/55/45 51/66/51 52/67/52
f 45/55/45 52/67/52 47/57/47
f 47/57/47 52/67/52 53/68/53
f 47/57/47 53/68/53 5/59/5
f 5/59/5 53/68/53 26/69/26
f 26/70/26 53/71/53 54/72/54
f 26/70/26 54/72/54 27/73/27
f 27/73/27 54/72/54 55/74/55
f 27/73/27 55/74/55 39/75/39
f 39/75/39 55/74/55 56/76/56
f 39/75/39 56/76/56 57/77/57
f 57/77/57 56/76/56 58/78/58
f 57/77/57 58/78/58 59/79/59
f 59/79/59 58/78/58 60/80/60
f 59/79/59 60/80/60 41/81/41
f 41/81/41 60/80/60 61/82/61
f 41/81/41 61/82/61 30/83/30
f 30/83/30 61/82/61 50/84/50
f 30/83/30 50/84/50 28/85/28
f 24/86/24 48/87/48 62/88/62
f 24/86/24 62/88/62 25/89/25
f 25/89/25 62/88/62 63/90/63
f 25/89/25 63/90/63 23/91/23
f 23/91/23 63/90/63 64/92/64
f 23/91/23 64/92/64 65/93/65
f 65/93/65 64/92/64 66/94/66
f 65/93/65 66/94/66 67/95/67
f 67/95/67 66/94/66 68/96/68
f 67/95/67 68/96/68 40/97/40
f 40/97/40 68/96/68 69/98/69
f 40/97/40 69/98/69 14/99/14
f 14/99/14 69/98/69 51/100/51
f 14/99/14 51/100/51 12/101/12
f 22/23/22 23/91/23 65/93/65
f 22/23/22 65/93/65 20/21/20
f 20/21/20 65/93/65 67/95/67
f 20/21/20 67/95/67 18/19/18
f 18/19/18 67/95/67 40/97/40
f 18/19/18 40/97/40 16/17/16
f 41/81/41 32/39/32 34/41/34
f 41/81/41 34/41/34 59/79/59
f 59/79/59 34/41/34 36/43/36
f 59/79/59 36/43/36 57/77/57
f 57/77/57 36/43/36 38/45/38
f 57/77/57 38/45/38 39/75/39
f 27/32/27 39/46/39 37/44/37
f 27/32/27 37/44/37 9/9/9
f 9/9/9 37/44/37 35/42/35
f 9/9/9 35/42/35 7/7/7
f 7/7/7 35/42/35 33/40/33
f 7/7/7 33/40/33 70/102/70
f 70/102/70 33/40/33 31/38/31
f 70/102/70 31/38/31 8/8/8
f 8/8/8 31/38/31 29/36/29
f 7/7/7 70/102/70 8/8/8
f 17/18/17 15/16/15 71/103/71
f 71/103/71 15/16/15 10/10/10
f 71/103/71 10/10/10 72/104/72
f 72/104/72 10/10/10 11/11/11
f 72/104/72 11/11/11 19/20/19
f 19/20/19 11/11/11 21/22/21
f 13/14/13 10/10/10 15/16/15
f 21/22/21 11/11/11 25/27/25
f 21/22/21 25/27/25 23/24/23
f 49/105/49 50/84/50 61/82/61
f 49/105/49 61/82/61 73/106/73
f 73/106/73 61/82/61 60/80/60
f 73/106/73 60/80/60 74/107/74
f 74/107/74 60/80/60 58/78/58
f 74/107/74 58/78/58 75/108/75
f 75/108/75 58/78/58 56/76/56
f 75/108/75 56/76/56 76/109/76
f 76/109/76 56/76/56 55/74/55
f 76/109/76 55/74/55 77/110/77
f 77/110/77 55/74/55 54/72/54
f 77/110/77 54/72/54 78/111/78
f 78/111/78 54/72/54 53/71/53
f 78/111/78 53/71/53 52/112/52
f 48/87/48 49/105/49 73/106/73
f 48/87/48 73/106/73 62/88/62
f 62/88/62 73/106/73 74/107/74
f 62/88/62 74/107/74 63/90/63
f 63/90/63 74/107/74 75/108/75
f 63/90/63 75/108/75 64/92/64
f 64/92/64 75/108/75 76/109/76
f 64/92/64 76/109/76 66/94/66
f 66/94/66 76/109/76 77/110/77
f 66/94/66 77/110/77 68/96/68
f 68/96/68 77/110/77 78/111/78
f 68/96/68 78/111/78 69/98/69
f 69/98/69 78/111/78 52/112/52
f 69/98/69 52/112/52 51/100/51
f 17/18/17 71/103/71 72/104/72
f 17/18/17 72/104/72 19/20/19
